<svg xmlns="http://www.w3.org/2000/svg" xmlns:xlink="http://www.w3.org/1999/xlink" width="45.996" height="42.401" viewBox="0 0 45.996 50.401">
  <defs>
    <linearGradient id="linear-gradient" x1="0.5" y1="1" x2="0.5" gradientUnits="objectBoundingBox">
      <stop offset="0.02" stop-color="#812990"/>
      <stop offset="0.04" stop-color="#7a2990"/>
      <stop offset="0.17" stop-color="#5e2c91"/>
      <stop offset="0.28" stop-color="#4d2e91"/>
      <stop offset="0.36" stop-color="#472f92"/>
      <stop offset="0.86" stop-color="#108fcc"/>
      <stop offset="1" stop-color="#00adde"/>
    </linearGradient>
  </defs>
  <g id="Group_3281" data-name="Group 3281" transform="translate(-22.374)">
    <path id="Path_681" data-name="Path 681" d="M147.013,465.147a.789.789,0,1,0,0-1.578h-2.356a.789.789,0,1,0,0,1.578Z" transform="translate(-109.534 -417.935)" fill="url(#linear-gradient)"/>
    <path id="Path_682" data-name="Path 682" d="M117.833,38.812a.789.789,0,0,0-.789-.789h-9.7a.789.789,0,1,0,0,1.578h9.7a.789.789,0,0,0,.789-.789Z" transform="translate(-75.892 -34.28)" fill="url(#linear-gradient)"/>
    <path id="Path_683" data-name="Path 683" d="M49.438,39.451a.789.789,0,0,0-.789.789v5.594a2.993,2.993,0,0,1-2.989,2.989H26.941a2.993,2.993,0,0,1-2.989-2.989V4.567a2.993,2.993,0,0,1,2.989-2.989h18.72a2.993,2.993,0,0,1,2.989,2.989v7.218a.789.789,0,1,0,1.578,0V4.567A4.572,4.572,0,0,0,45.661,0H26.941a4.572,4.572,0,0,0-4.567,4.567V45.834A4.572,4.572,0,0,0,26.941,50.4h18.72a4.572,4.572,0,0,0,4.567-4.567V40.24a.789.789,0,0,0-.789-.789Z" transform="translate(0)" fill="url(#linear-gradient)"/>
    <path id="Path_684" data-name="Path 684" d="M156.979,121.069a16.2,16.2,0,0,0-2.7,1.8.789.789,0,1,0,1,1.218,14.62,14.62,0,0,1,2.439-1.627.789.789,0,1,0-.739-1.394Z" transform="translate(-118.659 -109.068)" fill="url(#linear-gradient)"/>
    <path id="Path_685" data-name="Path 685" d="M100.779,172.907a.789.789,0,1,0-1.306-.886,16.051,16.051,0,0,0-2.555,6.356,16.241,16.241,0,0,0,.077,5.9.789.789,0,1,0,1.548-.306,14.67,14.67,0,0,1-.07-5.331A14.483,14.483,0,0,1,100.779,172.907Z" transform="translate(-66.995 -154.776)" fill="url(#linear-gradient)"/>
    <path id="Path_686" data-name="Path 686" d="M182.727,183.937a8.41,8.41,0,0,0-4.172,14.167.789.789,0,0,0,1.116-1.116,6.832,6.832,0,0,1,3.388-11.508.789.789,0,0,0-.331-1.543Z" transform="translate(-138.586 -165.815)" fill="url(#linear-gradient)"/>
    <path id="Path_687" data-name="Path 687" d="M178.289,179.58l-7.152-7.153a3.421,3.421,0,0,0-4.189-.508l-1.49-1.49a11.43,11.43,0,1,0-1.116,1.116l1.482,1.482a3.42,3.42,0,0,0,.478,4.236l7.153,7.153a3.419,3.419,0,0,0,4.835-4.835Zm-21.453-6.8a9.852,9.852,0,1,1,6.967-2.886,9.852,9.852,0,0,1-6.967,2.886ZM177.173,183.3a1.841,1.841,0,0,1-2.6,0l-7.153-7.153a1.841,1.841,0,0,1,2.6-2.6l7.153,7.153a1.841,1.841,0,0,1,0,2.6Z" transform="translate(-110.921 -136.581)" fill="url(#linear-gradient)"/>
  </g>
</svg>
