<svg xmlns="http://www.w3.org/2000/svg" xmlns:xlink="http://www.w3.org/1999/xlink" width="45.99" height="43.415" viewBox="0 0 43.99 49.415">
  <defs>
    <linearGradient id="linear-gradient" x1="0.5" y1="1" x2="0.5" gradientUnits="objectBoundingBox">
      <stop offset="0.02" stop-color="#812990"/>
      <stop offset="0.04" stop-color="#7a2990"/>
      <stop offset="0.17" stop-color="#5e2c91"/>
      <stop offset="0.28" stop-color="#4d2e91"/>
      <stop offset="0.36" stop-color="#472f92"/>
      <stop offset="0.86" stop-color="#108fcc"/>
      <stop offset="1" stop-color="#00adde"/>
    </linearGradient>
  </defs>
  <path id="Path_679" data-name="Path 679" d="M38.193,9.547h.624V27.039A1.786,1.786,0,0,0,40.6,28.82H55.04C59.757,37.5,72.885,34.2,72.98,24.314a9.576,9.576,0,0,0-11.422-9.353V9.547h.629A1.785,1.785,0,0,0,63.97,7.764V6.053A1.785,1.785,0,0,0,62.187,4.27H60.158a2.4,2.4,0,0,0-1.412-2.8c-2.38-1.293-7.14.216-8.556,2.561C48.772,1.685,44.014.176,41.633,1.469a2.4,2.4,0,0,0-1.412,2.8H38.193A1.785,1.785,0,0,0,36.41,6.053v1.71a1.785,1.785,0,0,0,1.783,1.784ZM54.517,27.68c.01.026.016.053.026.078H40.6a.724.724,0,0,1-.726-.721V9.548H46.1v7.635a1.1,1.1,0,0,0,1.872.768l2.236-2.228,2.19,2.232a1.105,1.105,0,0,0,1.875-.773V9.547H60.5v5.69A9.624,9.624,0,0,0,54.517,27.68ZM49.652,14.805c-.107-.041-2.317,2.312-2.433,2.4l.378.371-.434-.4V9.549h6.053v7.635l-.062.026c-.132-.106-2.318-2.44-2.443-2.411l-.025-2.51a.53.53,0,0,0-1.06.01S49.652,14.805,49.652,14.805ZM63.44,15.834c11.248.465,11.248,16.495,0,16.96a8.48,8.48,0,1,1,0-16.96ZM54.173,2.459c1.885-.7,5.634-.658,4.876,1.811H51.325a6.551,6.551,0,0,1,2.848-1.811Zm-12.9.812c1.327-2.429,6.324-.843,7.781,1H41.331a1.4,1.4,0,0,1-.058-1Zm-3.8,2.782a.723.723,0,0,1,.723-.723H62.187a.723.723,0,0,1,.723.723v1.71a.723.723,0,0,1-.723.723H38.193a.724.724,0,0,1-.723-.723Zm34.849,30a3.962,3.962,0,0,0-4.67-1.612L53.437,39.328a1.609,1.609,0,0,1-1.3-.13,3.425,3.425,0,0,0-1.8-4.541L43.592,31.51a8.276,8.276,0,0,0-4.415-.714l-2.889.327V30.56a1.477,1.477,0,0,0-1.475-1.475H30.465A1.477,1.477,0,0,0,28.99,30.56V44.5a1.477,1.477,0,0,0,1.475,1.475h4.348a1.474,1.474,0,0,0,1.469-1.414c.425-.127.946-.345,1.367-.118l11.639,5.407a6.149,6.149,0,0,0,5.507-.2L70.958,40.58a3.287,3.287,0,0,0,1.36-4.529ZM35.228,31.716V44.5a.415.415,0,0,1-.415.415H30.465a.415.415,0,0,1-.415-.415V30.56a.415.415,0,0,1,.415-.415h4.348a.415.415,0,0,1,.415.415v1.156Zm36.389,6.494a2.4,2.4,0,0,1-1.178,1.446L54.274,48.728a5.06,5.06,0,0,1-4.541.164L38.1,43.485a2.308,2.308,0,0,0-1.809-.029V32.189c2.138-.24,4.895-.792,6.872.289l6.725,3.139a2.555,2.555,0,0,1,1.4,1.535c.527,1.662-1.045,3.164-2.724,3.126a3.177,3.177,0,0,1-1.323-.291l-5.666-2.644a.53.53,0,0,0-.449.96l5.668,2.644a4.165,4.165,0,0,0,4.733-.863,2.766,2.766,0,0,0,2.254.245L67.99,35.44c1.792-.692,4.177.783,3.628,2.769ZM57.092,22.693a.809.809,0,0,0,.206.833l2.568,2.5-.607,3.533a.814.814,0,0,0,1.181.858l3.172-1.667,3.173,1.667a.814.814,0,0,0,1.181-.858l-.607-3.533,2.567-2.5a.814.814,0,0,0-.451-1.389l-3.547-.515s-1.587-3.215-1.586-3.215a.818.818,0,0,0-1.459,0L61.3,21.623l-3.548.515a.8.8,0,0,0-.657.554Zm4.485-.041a.813.813,0,0,0,.612-.446l1.423-2.883,1.422,2.883a.813.813,0,0,0,.612.446l3.182.462-2.3,2.245a.818.818,0,0,0-.234.721l.544,3.168-2.846-1.5a.812.812,0,0,0-.758,0l-2.846,1.5.544-3.17a.814.814,0,0,0-.234-.719l-2.3-2.245Z" transform="translate(-28.99 -0.994)" fill="url(#linear-gradient)"/>
</svg>
