<svg xmlns="http://www.w3.org/2000/svg" xmlns:xlink="http://www.w3.org/1999/xlink" width="118.64583 vw" height="80.809 vh" viewBox="0 0 358.725 224.758">
  <defs>
    <linearGradient id="linear-gradient" x1="0.5" y1="1" x2="0.5" gradientUnits="objectBoundingBox">
      <stop offset="0.02" stop-color="#812990"/>
      <stop offset="0.04" stop-color="#7a2990"/>
      <stop offset="0.17" stop-color="#5e2c91"/>
      <stop offset="0.28" stop-color="#4d2e91"/>
      <stop offset="0.36" stop-color="#472f92"/>
      <stop offset="0.86" stop-color="#108fcc"/>
      <stop offset="1" stop-color="#00adde"/>
    </linearGradient>
  </defs>
  <path id="Path_678" data-name="Path 678" d="M112.264,0a113.274,113.274,0,0,0-98.7,58.979A110.913,110.913,0,0,0,2.471,88.959a112.366,112.366,0,0,0,109.824,135.8h.206a112.3,112.3,0,0,0,42.889-8.533,98.758,98.758,0,0,1,19.274-5.776,104.491,104.491,0,0,1,59.533,6.286,90.044,90.044,0,0,0,22.4,6.033,91.351,91.351,0,0,0,9.509.784,90,90,0,0,0,92.494-85.4q.115-2.211.121-4.407v-.462a88.959,88.959,0,0,0-3.424-24.2,90.925,90.925,0,0,0-21.5-37.6,89.4,89.4,0,0,0-44-25.467,90.663,90.663,0,0,0-32.112-1.844,104.718,104.718,0,0,1-59.208-9.819,100.469,100.469,0,0,1-17.191-10.772A111.858,111.858,0,0,0,127.2.984q-.945-.128-1.9-.237A111.488,111.488,0,0,0,112.638,0Z" transform="translate(0)" fill="url(#linear-gradient)"/>
</svg>
